<svg width="112" height="92" viewBox="0 0 112 92" fill="none" xmlns="http://www.w3.org/2000/svg">
<path d="M14 26C10.8174 26 7.76515 24.7357 5.51472 22.4853C3.26428 20.2348 2 17.1826 2 14C2 10.8174 3.26428 7.76515 5.51472 5.51472C7.76515 3.26428 10.8174 2 14 2C17.1826 2 20.2348 3.26428 22.4853 5.51472C24.7357 7.76515 26 10.8174 26 14C26 17.1826 24.7357 20.2348 22.4853 22.4853C20.2348 24.7357 17.1826 26 14 26ZM14 26V74M56 26C52.8174 26 49.7652 24.7357 47.5147 22.4853C45.2643 20.2348 44 17.1826 44 14C44 10.8174 45.2643 7.76515 47.5147 5.51472C49.7652 3.26428 52.8174 2 56 2C59.1826 2 62.2348 3.26428 64.4853 5.51472C66.7357 7.76515 68 10.8174 68 14C68 17.1826 66.7357 20.2348 64.4853 22.4853C62.2348 24.7357 59.1826 26 56 26ZM56 26V74M98 26C94.8174 26 91.7652 24.7357 89.5147 22.4853C87.2643 20.2348 86 17.1826 86 14C86 10.8174 87.2643 7.76515 89.5147 5.51472C91.7652 3.26428 94.8174 2 98 2C101.183 2 104.235 3.26428 106.485 5.51472C108.736 7.76515 110 10.8174 110 14C110 17.1826 108.736 20.2348 106.485 22.4853C104.235 24.7357 101.183 26 98 26ZM98 26V38C98 41.1826 96.7357 44.2348 94.4853 46.4853C92.2348 48.7357 89.1826 50 86 50H14M14 74C17.1826 74 20.2348 75.2643 22.4853 77.5147C24.7357 79.7652 26 82.8174 26 86C26 89.1826 24.7357 92.2348 22.4853 94.4853C20.2348 96.7357 17.1826 98 14 98C10.8174 98 7.76515 96.7357 5.51472 94.4853C3.26428 92.2348 2 89.1826 2 86C2 82.8174 3.26428 79.7652 5.51472 77.5147C7.76515 75.2643 10.8174 74 14 74ZM56 74C59.1826 74 62.2348 75.2643 64.4853 77.5147C66.7357 79.7652 68 82.8174 68 86C68 89.1826 66.7357 92.2348 64.4853 94.4853C62.2348 96.7357 59.1826 98 56 98C52.8174 98 49.7652 96.7357 47.5147 94.4853C45.2643 92.2348 44 89.1826 44 86C44 82.8174 45.2643 79.7652 47.5147 77.5147C49.7652 75.2643 52.8174 74 56 74Z" stroke="url(#paint0_linear_58_55)" stroke-width="4" stroke-linecap="round" stroke-linejoin="round"/>
<defs>
<linearGradient id="paint0_linear_58_55" x1="55.8685" y1="-0.723721" x2="55.8685" y2="81.2603" gradientUnits="userSpaceOnUse">
<stop stop-color="#FF0000"/>
<stop offset="1" stop-color="#C80000" stop-opacity="0.05"/>
</linearGradient>
</defs>
</svg>
