<svg width="112" height="75" viewBox="0 0 112 75" fill="none" xmlns="http://www.w3.org/2000/svg">
<path d="M2 56C2 63.0914 3.39675 70.1133 6.1105 76.6649C8.82426 83.2165 12.8019 89.1694 17.8162 94.1838C22.8306 99.1981 28.7835 103.176 35.3351 105.889C41.8867 108.603 48.9086 110 56 110C63.0914 110 70.1133 108.603 76.6649 105.889C83.2165 103.176 89.1694 99.1981 94.1838 94.1838C99.1981 89.1694 103.176 83.2165 105.889 76.6649C108.603 70.1133 110 63.0914 110 56M2 56C2 48.9086 3.39675 41.8867 6.1105 35.3351C8.82426 28.7835 12.8019 22.8306 17.8162 17.8162C22.8306 12.8019 28.7835 8.82426 35.3351 6.11051C41.8867 3.39675 48.9086 2 56 2C63.0914 2 70.1133 3.39675 76.6649 6.11051C83.2165 8.82426 89.1694 12.8019 94.1838 17.8162C99.1981 22.8306 103.176 28.7835 105.889 35.3351C108.603 41.8867 110 48.9086 110 56M2 56H38M110 56H74M38 56C38 60.7739 39.8964 65.3523 43.2721 68.7279C46.6477 72.1036 51.2261 74 56 74C60.7739 74 65.3523 72.1036 68.7279 68.7279C72.1036 65.3523 74 60.7739 74 56M38 56C38 51.2261 39.8964 46.6477 43.2721 43.2721C46.6477 39.8964 51.2261 38 56 38C60.7739 38 65.3523 39.8964 68.7279 43.2721C72.1036 46.6477 74 51.2261 74 56M65.6006 40.4006L86.0006 11.6006M46.4 71.6006L26 100.401M26 11.6006L46.4 40.4006M65.6006 71.6006L86.0006 100.401" stroke="url(#paint0_linear_58_66)" stroke-width="4" stroke-linecap="round" stroke-linejoin="round"/>
<defs>
<linearGradient id="paint0_linear_58_66" x1="55.8685" y1="-1.06419" x2="55.8685" y2="91.1678" gradientUnits="userSpaceOnUse">
<stop stop-color="#FF0000"/>
<stop offset="1" stop-color="#C80000" stop-opacity="0.05"/>
</linearGradient>
</defs>
</svg>
