<svg width="112" height="110" viewBox="0 0 112 110" fill="none" xmlns="http://www.w3.org/2000/svg">
<path d="M2 110L69.5 42.5M69.5 42.5V8.75M69.5 42.5H103.25M69.5 8.75L42.5 35.75M69.5 8.75C73.793 4.47725 79.7127 2 86.2602 2C89.3766 1.99823 92.4628 2.61039 95.3425 3.80153C98.2222 4.99267 100.839 6.73945 103.044 8.9421C105.248 11.1447 106.997 13.7601 108.191 16.6388C109.384 19.5175 109.999 22.6032 110 25.7195C110 32.2738 107.557 38.207 103.25 42.5M103.25 42.5L76.25 69.5M42.5 35.75V69.5H76.25M42.5 35.75L15.5 62.75V96.5H49.25L76.25 69.5" stroke="url(#paint0_linear_60_24)" stroke-width="4" stroke-linecap="round" stroke-linejoin="round"/>
<defs>
<linearGradient id="paint0_linear_60_24" x1="55.8685" y1="-1.06419" x2="55.8685" y2="91.1678" gradientUnits="userSpaceOnUse">
<stop stop-color="#00C848"/>
<stop offset="1" stop-color="#00C848" stop-opacity="0.1"/>
</linearGradient>
</defs>
</svg>
