<svg width="112" height="100" viewBox="0 0 112 100" fill="none" xmlns="http://www.w3.org/2000/svg">
<path d="M62.2272 44.3136L106.314 88.6101C111.229 93.5067 111.229 101.437 106.314 106.328C103.953 108.676 100.759 109.994 97.4287 109.994C94.0987 109.994 90.9042 108.676 88.5432 106.328L44.313 62.2281M62.2272 44.3136L38.3416 20.4276M62.2272 44.3136L65.2121 47.2985L78.9045 33.6058C80.024 32.486 80.6528 30.9674 80.6528 29.384C80.6528 27.8006 80.024 26.282 78.9045 25.1621L57.491 3.74837C56.3712 2.62889 54.8526 2 53.2692 2C51.6858 2 50.1673 2.62889 49.0474 3.74837L35.355 17.441L38.3416 20.4276M62.2272 44.3136L44.313 62.2281M44.313 62.2281L20.4274 38.3421M44.313 62.2281L47.2978 65.2129L33.6054 78.9055C32.4856 80.025 30.967 80.6539 29.3836 80.6539C27.8002 80.6539 26.2816 80.025 25.1618 78.9055L3.74835 57.4918C2.62888 56.372 2 54.8534 2 53.2699C2 51.6865 2.62888 50.1679 3.74835 49.0481L17.4408 35.3555L20.4274 38.3421M20.4274 38.3421L38.3416 20.4276M2.51317 110H44.313" stroke="url(#paint0_linear_58_79)" stroke-width="4" stroke-linecap="round" stroke-linejoin="round"/>
<defs>
<linearGradient id="paint0_linear_58_79" x1="55.8685" y1="-1.06419" x2="55.8685" y2="91.1678" gradientUnits="userSpaceOnUse">
<stop stop-color="#FF0000"/>
<stop offset="1" stop-color="#C80000" stop-opacity="0.05"/>
</linearGradient>
</defs>
</svg>
