<svg width="112" height="87" viewBox="0 0 112 87" fill="none" xmlns="http://www.w3.org/2000/svg">
<path d="M86 14C86 17.1826 87.2643 20.2349 89.5147 22.4853C91.7652 24.7357 94.8174 26 98 26C101.183 26 104.235 24.7357 106.485 22.4853C108.736 20.2349 110 17.1826 110 14C110 10.8174 108.736 7.76517 106.485 5.51474C104.235 3.2643 101.183 2.00002 98 2.00002C94.8174 2.00002 91.7652 3.2643 89.5147 5.51473C87.2643 7.76517 86 10.8174 86 14ZM86 14L65 14L44 50M86 86C86 89.1826 87.2643 92.2349 89.5147 94.4853C91.7651 96.7357 94.8174 98 98 98C101.183 98 104.235 96.7357 106.485 94.4853C108.736 92.2349 110 89.1826 110 86C110 82.8174 108.736 79.7652 106.485 77.5147C104.235 75.2643 101.183 74 98 74C94.8174 74 91.7651 75.2643 89.5147 77.5147C87.2643 79.7652 86 82.8174 86 86ZM86 86L65 86L44 50M26 50C26 53.1826 24.7357 56.2348 22.4853 58.4853C20.2348 60.7357 17.1826 62 14 62C10.8174 62 7.76514 60.7357 5.51471 58.4853C3.26427 56.2348 1.99999 53.1826 1.99999 50C1.99999 46.8174 3.26427 43.7652 5.51471 41.5147C7.76515 39.2643 10.8174 38 14 38C17.1826 38 20.2348 39.2643 22.4853 41.5147C24.7357 43.7652 26 46.8174 26 50ZM26 50L44 50" stroke="url(#paint0_linear_61_43)" stroke-width="4" stroke-linecap="round" stroke-linejoin="round"/>
<defs>
<linearGradient id="paint0_linear_61_43" x1="55.8685" y1="-0.723712" x2="55.8685" y2="81.2603" gradientUnits="userSpaceOnUse">
<stop stop-color="#00C848"/>
<stop offset="1" stop-color="#00C848" stop-opacity="0.1"/>
</linearGradient>
</defs>
</svg>
