<svg width="112" height="97" viewBox="0 0 112 97" fill="none" xmlns="http://www.w3.org/2000/svg">
<path d="M56 110C48.9086 110 41.8867 108.603 35.3351 105.889C28.7835 103.176 22.8306 99.1981 17.8162 94.1838C12.8019 89.1694 8.82426 83.2165 6.1105 76.6649C3.39675 70.1133 2 63.0914 2 56C2 48.9086 3.39675 41.8867 6.1105 35.3351C8.82426 28.7835 12.8019 22.8306 17.8162 17.8162C22.8306 12.8019 28.7835 8.82426 35.3351 6.11051C41.8867 3.39675 48.9086 2 56 2C63.0914 2 70.1133 3.39675 76.6649 6.11051C83.2165 8.82426 89.1694 12.8019 94.1838 17.8162C99.1981 22.8306 103.176 28.7835 105.889 35.3351C108.603 41.8867 110 48.9086 110 56C110 63.0914 108.603 70.1133 105.889 76.6649C103.176 83.2165 99.1981 89.1694 94.1838 94.1838C89.1694 99.1981 83.2165 103.176 76.6649 105.889C70.1133 108.603 63.0914 110 56 110ZM56 110V68M44 56C44 59.1826 45.2643 62.2348 47.5147 64.4853C49.7652 66.7357 52.8174 68 56 68M44 56C44 52.8174 45.2643 49.7652 47.5147 47.5147C49.7652 45.2643 52.8174 44 56 44C59.1826 44 62.2348 45.2643 64.4853 47.5147C66.7357 49.7652 68 52.8174 68 56M44 56L3.5 44M56 68C59.1826 68 62.2348 66.7357 64.4853 64.4853C66.7357 62.2348 68 59.1826 68 56M68 56L108.5 44" stroke="url(#paint0_linear_61_55)" stroke-width="4" stroke-linecap="round" stroke-linejoin="round"/>
<defs>
<linearGradient id="paint0_linear_61_55" x1="55.8685" y1="-1.06419" x2="55.8685" y2="91.1678" gradientUnits="userSpaceOnUse">
<stop stop-color="#00C848"/>
<stop offset="1" stop-color="#00C848" stop-opacity="0.1"/>
</linearGradient>
</defs>
</svg>
