<svg width="114" height="106" viewBox="0 0 114 106" fill="none" xmlns="http://www.w3.org/2000/svg">
<path d="M14.1898 32.4718H65.9966C68.8273 32.526 71.6171 31.7904 74.0531 30.3476C76.4891 28.9048 78.4749 26.8119 79.7879 24.3036C81.1008 21.7952 81.689 18.9707 81.4863 16.1468C81.2837 13.3228 80.2983 10.6112 78.6407 8.31601C76.983 6.02082 74.7187 4.23285 72.1017 3.15265C69.4847 2.07245 66.6185 1.74273 63.8245 2.20049C61.0306 2.65824 58.4194 3.88536 56.2839 5.74421C54.1484 7.60306 52.5731 10.0201 51.7345 12.7243M2 56.8511H96.4712C99.3019 56.7969 102.092 57.5325 104.528 58.9753C106.964 60.418 108.949 62.511 110.262 65.0193C111.575 67.5277 112.164 70.3522 111.961 73.1761C111.758 76.0001 110.773 78.7117 109.115 81.0069C107.458 83.3021 105.193 85.09 102.576 86.1702C99.9593 87.2504 97.093 87.5801 94.2991 87.1224C91.5052 86.6646 88.894 85.4375 86.7585 83.5787C84.623 81.7198 83.0476 79.3028 82.2091 76.5986M8.09492 81.2307H41.617C44.4476 81.1766 47.2374 81.9121 49.6734 83.3549C52.1094 84.7977 54.0952 86.8906 55.4082 89.399C56.7212 91.9073 57.3093 94.7319 57.1067 97.5558C56.904 100.38 55.9186 103.091 54.261 105.387C52.6034 107.682 50.3391 109.47 47.722 110.55C45.105 111.63 42.2388 111.96 39.4449 111.502C36.6509 111.044 34.0398 109.817 31.9043 107.958C29.7688 106.099 28.1934 103.682 27.3548 100.978" stroke="url(#paint0_linear_58_25)" stroke-width="4" stroke-linecap="round" stroke-linejoin="round"/>
<defs>
<linearGradient id="paint0_linear_58_25" x1="56.8661" y1="-1.11249" x2="56.8661" y2="92.5735" gradientUnits="userSpaceOnUse">
<stop stop-color="#FF0000"/>
<stop offset="1" stop-color="#C80000" stop-opacity="0.05"/>
</linearGradient>
</defs>
</svg>
